# xmcd
#
# Track frame offsets:
#	150
#	9641
#	23792
#	40661
#	53640
#	68037
#	84088
#	99778
#	112265
#	124515
#	138885
#	155460
#	171736
#	196284
#	218483
#	234560
#
# Disc length: 3328 seconds
#
# Revision: 1
# Processed by: cddbd v1.5.1PL2 Copyright (c) Steve Scherf et al.
# Submitted via: audiograbber 1.81.03
#
DISCID=c80cfe10
DTITLE=Tassilo - Touching the Place of Wonder
DYEAR=2005
DGENRE=Country
TTITLE0=The`Hunt
TTITLE1=Home Free
TTITLE2=Gliding
TTITLE3=It's About Time
TTITLE4=Traveling
TTITLE5=Up and Down
TTITLE6=Reverberations
TTITLE7=Over Back Roads
TTITLE8=Countryside
TTITLE9=White Satin
TTITLE10=Spellbound
TTITLE11=Bleeding Heart
TTITLE12=On My Way South
TTITLE13=Wild Beauty
TTITLE14=Change of Season
TTITLE15=Espagna
EXTD=
EXTT0=
EXTT1=
EXTT2=
EXTT3=
EXTT4=
EXTT5=
EXTT6=
EXTT7=
EXTT8=
EXTT9=
EXTT10=
EXTT11=
EXTT12=
EXTT13=
EXTT14=
EXTT15=
PLAYORDER=
